<svg version="1.2" xmlns="http://www.w3.org/2000/svg" viewBox="0 0 134 40" width="134" height="40">
	<defs>
		<linearGradient id="g1" x2="1" gradientUnits="userSpaceOnUse" gradientTransform="matrix(-4.329,11.707,-23.861,-8.822,25.527,20.092)">
			<stop offset="0" stop-color="#19002b"/>
			<stop offset="1" stop-color="#16608d"/>
		</linearGradient>
		<linearGradient id="g2" x2="1" gradientUnits="userSpaceOnUse" gradientTransform="matrix(10.159,-8.19,8.569,10.629,20.926,28.266)">
			<stop offset="0" stop-color="#172550"/>
			<stop offset="1" stop-color="#17496f"/>
		</linearGradient>
	</defs>
	<style>
		.s0 { fill: #1fa2b7 } 
		.s1 { fill: #133152 } 
		.s2 { fill: url(#g1) } 
		.s3 { fill: #176d93 } 
		.s4 { fill: url(#g2) } 
		.s5 { fill: #a0d822 } 
	</style>
	<path class="s0" d="m15.98 14.03c0.25-0.31 0.73-0.78 1.02-1.09l2.24-2.38q2.06-2.21 4.14-4.39c0.29-0.31 1.92-2.11 2.15-2.17 0.58 0.53 1.16 1.19 1.7 1.76l2.47 2.63c1.77 1.89 3.62 3.75 5.36 5.66q-1.73 0.02-3.47 0.02c-0.04 1.7-0.02 3.48-0.02 5.18l-4.23 0.01c-0.04 1.35-0.09 2.74-0.02 4.08-0.46-0.48-1.5-1.57-1.83-2.08-0.62-0.62-1.28-1.41-1.89-2.07-1.29-0.01-2.81-0.04-4.09 0.03l-0.01-5.18z"/>
	<path class="s1" d="m15.98 14.08c0.25-0.31 0.73-0.79 1.02-1.09l2.24-2.38q2.06-2.21 4.14-4.39c0.29-0.31 1.92-2.11 2.15-2.17-0.04 0.48-0.02 1.23-0.03 1.72l0.01 3c0.01 2.66 0.03 5.35 0.03 8 0 0.75 0.11 3.99-0.05 4.54-0.62-0.62-1.28-1.41-1.89-2.07-1.29-0.01-2.81-0.04-4.09 0.02l-0.01-5.17z"/>
	<path class="s2" d="m13.35 15.6c-0.1 0.81-0.16 1.57-0.14 2.39 0.2 6 5.45 11.39 12.37 12.21 3.05 0.35 6.14-0.16 8.84-1.44 0.84-0.4 1.44-0.78 2.19-1.28 0.35-0.3 0.86-0.66 1.24-0.97-0.14 0.25-0.4 0.65-0.59 0.86-0.24 0.46-0.72 0.99-1.1 1.38-1.6 1.65-3.49 2.85-5.83 3.6q-1.82 0.58-3.75 0.72c-3.07 0.35-7.58-0.86-9.82-2.71-1.43-0.83-3.32-3.37-3.92-4.8-1.44-3.46-1.17-6.66 0.51-9.96z"/>
	<path class="s3" d="m16.76 30.36c0.23 0.06 0.31 0.12 0.5 0.24 0.15-0.1 0.18-0.16 0.38-0.14 1.21 0.15 2.43 0.71 3.53 1.17 0.48 0.21 1 0.63 1.52 0.76 0.64 0.16 2.16 0.06 2.54 0.63 0.37 0.13 0.88-0.12 1.35 0.05-3.07 0.35-7.58-0.86-9.82-2.71z"/>
	<path class="s1" d="m36.61 27.48c0.35-0.3 0.86-0.66 1.24-0.97-0.14 0.25-0.4 0.65-0.59 0.86 0.01-0.09 0.03-0.14 0-0.22-0.21 0.01-0.28 0.24-0.65 0.33z"/>
	<path class="s4" d="m19.52 20.19q1.82 0.01 3.63 0c0.29 0.38 0.8 0.92 1.13 1.3q1.11 1.26 2.25 2.5c0.59 0.65 1.29 1.36 1.83 2.04-0.08-1.85 0.02-3.91 0-5.79 0.98 0.04 2.23 0.03 3.21 0.01-0.03 2.67-0.06 5.6-0.01 8.27 0.01 0.13 0.01 0.17-0.02 0.3-0.34 0.29-2.8 0.44-3.35 0.46q-0.15-0.13-0.29-0.27c-1.73-1.83-3.49-3.66-5.18-5.52 0.06 1.59 0 3.57 0 5.18-0.98-0.4-2.29-1.08-3.17-1.62z"/>
	<path class="s5" d="m14.12 10.61c0.31 0 0.55 0.42 0.7 0.62-0.22 0.21-0.59 0.5-0.84 0.71-3.08 2.58-4.85 6.13-4.9 9.85-0.11 3.67 1.47 7.23 4.4 9.87 3.02 2.76 7.18 4.35 11.55 4.41 8.17 0.13 15.5-5.51 15.99-12.61 0.07-0.95 0.02-0.92 1.11-0.88 0.01 0.43-0.02 0.79-0.05 1.21-0.42 3.74-2.48 7.19-5.77 9.63-3.43 2.57-7.9 3.84-12.42 3.53-4.53-0.3-8.74-2.16-11.72-5.15-2.99-2.99-4.47-6.9-4.12-10.86 0.36-4.21 2.41-7.59 6.07-10.33z"/>
	<path class="s3" d="m38.04 14.39c0.15 0.07 1.72 1.95 1.99 2.24 0.6-0.24 2.27-0.68 2.96-0.87-0.17 0.26-1.64 1.95-1.89 2.2 0.65 0.79 1.18 1.65 1.9 2.41-0.71-0.25-1.56-0.5-2.29-0.74l-0.86-0.27c-0.66 0.75-1.34 1.48-2 2.24 0.05-0.91 0.06-1.82 0.1-2.74-0.28-0.07-0.72-0.24-1.02-0.33q-1.05-0.32-2.08-0.68c0.86-0.25 2.2-0.53 3.11-0.75-0.02-0.79 0.05-1.9 0.08-2.71z"/>
	<path id="NEXGEN" class="s1" aria-label="NEXGEN"  d="m57.3 23.9h1.7q0.3 0 0.4 0.2 0.1 0.1 0.1 0.3v8.9q0 0.3-0.1 0.6 0 0.3-0.2 0.5-0.2 0.3-0.7 0.5-0.4 0.1-1.2 0.1-0.5 0-0.9 0-0.4 0-0.7-0.1-0.3-0.1-0.6-0.3-0.3-0.2-0.6-0.6l-5.9-7.6h-0.1v8.1q0 0.2-0.2 0.4-0.1 0.1-0.3 0.1h-1.7q-0.3 0-0.4-0.1-0.2-0.2-0.2-0.4v-8.9q0-0.3 0.1-0.6 0-0.3 0.2-0.5 0.2-0.3 0.5-0.4 0.3-0.2 0.9-0.2h1.4q0.4 0 0.7 0.1 0.3 0 0.5 0.1 0.2 0.1 0.4 0.3 0.1 0.2 0.3 0.5l6 7.6h0.1v-8.1q0-0.2 0.1-0.3 0.1-0.2 0.4-0.2zm3.8 0h10.7q0.1 0 0.3 0.1 0.2 0.1 0.2 0.4v1q0 0.3-0.2 0.4-0.2 0.1-0.3 0.1h-10.7q-0.1 0-0.4-0.1-0.1 0-0.1-0.4v-1q0-0.3 0.1-0.4 0.3-0.1 0.4-0.1zm2.3 6.5v1.4q0 0.7 0.4 0.9 0.6 0.3 1.4 0.3h6.6q0.3 0 0.4 0.1 0.1 0.2 0.1 0.4v1q0 0.2-0.1 0.4-0.1 0.1-0.4 0.1h-6.6q-1.4 0-2.3-0.3-0.9-0.3-1.4-0.8-0.5-0.5-0.7-1.2-0.2-0.7-0.2-1.6v-1.8q0-0.1 0-0.3 0.1-0.2 0.3-0.3 0.2-0.1 0.4-0.2 0.3-0.1 0.8-0.1h9.6q0.3 0 0.4 0.1 0.1 0.2 0.1 0.4v1q0 0.2-0.1 0.4-0.1 0.1-0.4 0.1zm18.4-1.1l5.1 5.1q0.1 0.1 0.1 0.3 0 0.3-0.4 0.3h-2.2q-0.3 0-0.4-0.1-0.1 0-0.3-0.2l-3.7-3.8-3.8 3.8q-0.2 0.2-0.3 0.2-0.1 0.1-0.4 0.1h-2q-0.5 0-0.5-0.3 0-0.2 0.2-0.3l5.1-5.2-4.6-4.7q-0.1-0.1-0.1-0.3 0-0.3 0.4-0.3h2.1q0.3 0 0.4 0.1 0.2 0 0.3 0.2l3.3 3.4 3.5-3.4q0.2-0.2 0.3-0.2 0.1-0.1 0.4-0.1h2q0.5 0 0.5 0.3 0 0.2-0.2 0.3zm9.4-5.3h8q0.3 0 0.4 0.1 0.2 0.1 0.2 0.3v1.1q0 0.2-0.2 0.3-0.1 0.2-0.4 0.2h-7.9q-0.7 0-1.1 0.1-0.4 0.2-0.6 0.4-0.2 0.3-0.2 0.7 0 0.3 0 0.7v3.2q0 0.4 0 0.7 0 0.4 0.2 0.7 0.2 0.2 0.6 0.4 0.4 0.1 1.1 0.1h5.2q0.3 0 0.4 0 0.1-0.1 0.2-0.2 0-0.2 0-0.3 0-0.2 0-0.3v-1.8h-4.6q-0.3 0-0.4-0.2-0.1-0.1-0.1-0.3 0-0.2-0.1-0.4 0-0.3 0-0.5 0-0.3 0.1-0.5 0.2-0.1 0.5-0.1h6.6q0.3 0 0.5 0.1 0.1 0.2 0.1 0.5v3.5q0 0.5 0 0.9-0.1 0.4-0.3 0.8-0.2 0.4-0.7 0.6-0.4 0.2-1.1 0.2h-6.4q-1.4 0-2.3-0.3-0.9-0.3-1.5-0.8-0.5-0.6-0.6-1.4-0.2-0.7-0.2-1.7v-2.6q0-0.9 0.2-1.7 0.1-0.8 0.6-1.3 0.5-0.6 1.4-0.9 0.9-0.3 2.4-0.3zm10.9 0h10.7q0.1 0 0.4 0 0.2 0.1 0.2 0.4v1.1q0 0.3-0.2 0.4-0.3 0.1-0.4 0.1h-10.7q-0.1 0-0.3-0.1-0.2-0.1-0.2-0.4v-1.1q0-0.3 0.2-0.4 0.2 0 0.3 0zm2.3 6.4v1.4q0 0.7 0.5 1 0.5 0.3 1.3 0.3h6.6q0.3 0 0.4 0.1 0.2 0.1 0.2 0.3v1.1q0 0.2-0.2 0.3-0.1 0.1-0.4 0.1h-6.6q-1.4 0-2.3-0.2-0.8-0.3-1.4-0.8-0.5-0.5-0.7-1.2-0.2-0.8-0.2-1.7v-1.7q0-0.2 0.1-0.4 0-0.1 0.2-0.2 0.2-0.2 0.5-0.3 0.3 0 0.7 0h9.6q0.3 0 0.4 0.1 0.2 0.1 0.2 0.3v1.1q0 0.2-0.2 0.3-0.1 0.1-0.4 0.1zm21-6.4h1.7q0.2 0 0.3 0.1 0.2 0.1 0.2 0.3v8.9q0 0.3-0.1 0.6 0 0.3-0.3 0.6-0.2 0.2-0.6 0.4-0.4 0.1-1.2 0.1-0.5 0-0.9 0-0.4 0-0.7-0.1-0.3-0.1-0.6-0.3-0.3-0.2-0.6-0.5l-6-7.6v8.1q0 0.2-0.2 0.3-0.1 0.1-0.4 0.1h-1.6q-0.3 0-0.4-0.1-0.2-0.1-0.2-0.3v-8.9q0-0.3 0.1-0.6 0-0.3 0.2-0.6 0.2-0.2 0.5-0.4 0.3-0.1 0.8-0.1h1.4q0.5 0 0.8 0 0.3 0.1 0.5 0.2 0.2 0.1 0.3 0.3 0.2 0.2 0.4 0.4l6 7.6h0.1v-8.1q0-0.2 0.1-0.3 0.1-0.1 0.4-0.1z"/>
	<path id="PAKISTAN" class="s3" aria-label="PAKISTAN"  d="m79.7 15.4h4.2q0.5 0 0.9 0.2 0.3 0.1 0.5 0.3 0.2 0.2 0.3 0.5 0 0.3 0 0.6 0 0.4 0 0.7-0.1 0.3-0.3 0.5-0.2 0.2-0.5 0.4-0.4 0.1-0.9 0.1h-3.1v2.1q0 0.1-0.1 0.1-0.1 0.1-0.2 0.1h-0.8q-0.2 0-0.3-0.1 0 0 0-0.1v-2.9q0-0.1 0-0.1 0.1-0.1 0.3-0.1h4q0.2 0 0.3 0 0.1-0.1 0.2-0.2 0-0.1 0.1-0.2 0-0.1 0-0.2 0-0.2 0-0.3-0.1-0.1-0.1-0.2-0.1-0.1-0.2-0.1-0.1-0.1-0.3-0.1h-4q-0.2 0-0.3 0 0-0.1 0-0.2 0-0.1 0-0.2 0-0.1 0-0.3 0-0.1 0-0.2 0.1-0.1 0.3-0.1zm8.9 0q0.2 0 0.4 0 0.2 0.1 0.3 0.2 0.2 0 0.2 0.2 0.1 0.1 0.2 0.3l2.6 4.6q0 0.1 0 0.2 0 0 0 0.1-0.1 0-0.2 0h-0.9q-0.2 0-0.3-0.1l-2.3-4.2-1.2 2.2h1.1q0.2 0 0.3 0.1 0 0.1 0.1 0.2 0 0 0.1 0.1 0 0.2 0.1 0.2 0 0.1 0 0.2 0 0.1-0.1 0.1 0 0.1-0.2 0.1h-2l-0.5 1q-0.1 0.1-0.3 0.1h-1q-0.2 0-0.2-0.1 0-0.1 0-0.2l2.6-4.6q0.2-0.3 0.4-0.5 0.3-0.2 0.8-0.2zm9.2 3.3l1.6 2q0 0 0 0.2 0 0.1-0.2 0.1h-1q-0.2 0-0.2 0-0.1-0.1-0.1-0.1l-1.4-1.9q-0.2-0.2-0.3-0.2-0.2-0.1-0.5-0.1h-1v2.1q0 0.1-0.1 0.2-0.1 0-0.1 0h-0.9q0 0-0.1 0-0.1-0.1-0.1-0.2v-5.1q0-0.2 0.1-0.2 0.1-0.1 0.1-0.1h0.9q0 0 0.1 0.1 0.1 0 0.1 0.2v2h0.9q0.3 0 0.5-0.1 0.1 0 0.3-0.2l1.4-1.8q0-0.1 0-0.1 0 0 0.1 0 0-0.1 0.2-0.1h0.9q0.1 0 0.2 0.1 0 0.1 0 0.2l-1.6 2q-0.1 0.1-0.2 0.3-0.1 0.1-0.2 0.1 0.1 0.1 0.3 0.3 0.1 0.1 0.3 0.3zm1.8-3.3h0.9q0 0 0.1 0.1 0.1 0 0.1 0.2v5.1q0 0.1-0.1 0.2-0.1 0-0.1 0h-0.9q0 0-0.1 0-0.1-0.1-0.1-0.2v-5.1q0-0.2 0.1-0.2 0.1-0.1 0.1-0.1zm3.1 1.2v0.9q0 0.1 0.1 0.1 0 0.1 0.1 0.1h2.8q0.4 0 0.7 0.1 0.3 0.1 0.4 0.3 0.2 0.2 0.3 0.5 0.1 0.2 0.1 0.5v0.6q0 0.2-0.1 0.5-0.1 0.2-0.3 0.4-0.2 0.2-0.4 0.3-0.3 0.1-0.7 0.1h-4.2q-0.1 0-0.2-0.1 0 0 0-0.1v-0.6q0-0.1 0-0.1 0.1-0.1 0.2-0.1h4q0.2 0 0.2-0.1 0.1-0.1 0.1-0.3v-0.6q0-0.1-0.1-0.2 0-0.1-0.2-0.1h-2.8q-0.7 0-1.1-0.3-0.3-0.4-0.3-0.9v-0.9q0-0.2 0-0.4 0.1-0.2 0.3-0.4 0.1-0.2 0.4-0.3 0.3-0.1 0.7-0.1h4q0.1 0 0.2 0.1 0 0.1 0 0.2v0.5q0 0.1 0 0.2-0.1 0-0.2 0h-3.7q-0.1 0-0.2 0.1-0.1 0-0.1 0.1zm5.7-1.2h6.1q0.1 0 0.2 0.1 0.1 0 0.1 0.2v0.5q0 0.1 0 0.1-0.1 0.1-0.1 0.1-0.1 0-0.1 0 0 0-0.1 0h-2.3v4.4q0 0.1-0.1 0.2-0.1 0-0.2 0h-0.8q-0.1 0-0.2 0-0.1-0.1-0.1-0.2v-4.4h-2.4q0 0 0 0-0.1 0-0.1 0-0.1 0-0.1-0.1 0 0 0-0.1v-0.5q0-0.2 0.1-0.2 0.1-0.1 0.1-0.1zm8.2 0q0.2 0 0.4 0 0.2 0.1 0.3 0.2 0.2 0 0.2 0.2 0.1 0.1 0.2 0.3l2.6 4.6q0 0.1 0 0.2 0 0 0 0.1-0.1 0-0.2 0h-0.9q-0.2 0-0.3-0.1l-2.3-4.2-1.2 2.2h1.1q0.2 0 0.3 0.1 0 0.1 0.1 0.2 0 0 0.1 0.1 0 0.2 0.1 0.2 0 0.1 0 0.2 0 0.1-0.1 0.1 0 0.1-0.2 0.1h-2l-0.5 1q-0.1 0.1-0.3 0.1h-1q-0.2 0-0.2-0.1 0-0.1 0-0.2l2.6-4.6q0.2-0.3 0.4-0.5 0.3-0.2 0.8-0.2zm9.4 0h0.9q0.1 0 0.2 0.1 0 0.1 0 0.2v4.4q0 0.2 0 0.3 0 0.2-0.1 0.3-0.1 0.1-0.4 0.2-0.2 0.1-0.5 0.1-0.3 0-0.5 0-0.2 0-0.3-0.1-0.2 0-0.3-0.1-0.2-0.1-0.3-0.3l-2.9-3.8h-0.1v4.1q0 0.1-0.1 0.1 0 0.1-0.1 0.1h-0.9q-0.1 0-0.2-0.1 0 0 0-0.1v-4.5q0-0.2 0-0.3 0-0.2 0.1-0.3 0.1-0.1 0.2-0.2 0.2-0.1 0.5-0.1h0.6q0.3 0 0.4 0.1 0.2 0 0.3 0 0.1 0.1 0.1 0.2 0.1 0.1 0.2 0.2l2.9 3.8h0.1v-4q0-0.1 0-0.2 0.1-0.1 0.2-0.1z"/>
</svg>